<?xml version="1.0" encoding="UTF-8"?>
<!DOCTYPE svg PUBLIC "-//W3C//DTD SVG 1.1//EN" "http://www.w3.org/Graphics/SVG/1.1/DTD/svg11.dtd">
<svg xmlns="http://www.w3.org/2000/svg" version="1.1" width="800px" height="800px" style="shape-rendering:geometricPrecision; text-rendering:geometricPrecision; image-rendering:optimizeQuality; fill-rule:evenodd; clip-rule:evenodd" xmlns:xlink="http://www.w3.org/1999/xlink">
<g><path style="opacity:1" fill="#04d7c3" d="M 297.5,-0.5 C 309.5,-0.5 321.5,-0.5 333.5,-0.5C 351.826,5.9926 369.492,14.1593 386.5,24C 435.991,49.9004 483.658,78.567 529.5,110C 541.63,119.63 553.297,129.796 564.5,140.5C 564.821,142.048 565.821,142.715 567.5,142.5C 570.833,145.167 573.833,148.167 576.5,151.5C 576.285,153.179 576.952,154.179 578.5,154.5C 581.464,156.962 584.297,159.629 587,162.5C 625.769,212.601 663.769,263.268 701,314.5C 731.296,360.43 754.629,409.763 771,462.5C 779.346,492.281 783.013,522.615 782,553.5C 772.658,571.67 760.824,588.003 746.5,602.5C 744.952,602.821 744.285,603.821 744.5,605.5C 741.833,608.833 738.833,611.833 735.5,614.5C 733.821,614.285 732.821,614.952 732.5,616.5C 697.591,649.471 656.924,672.971 610.5,687C 558.281,703.412 504.781,711.246 450,710.5C 399.371,709.973 349.205,704.973 299.5,695.5C 298.053,694.115 297.053,694.448 296.5,696.5C 290.578,730.451 277.745,761.451 258,789.5C 254.629,792.703 251.462,796.036 248.5,799.5C 245.5,799.5 242.5,799.5 239.5,799.5C 235.835,795.919 234.668,791.585 236,786.5C 252.412,766.684 264.412,744.351 272,719.5C 275.647,706.246 278.98,692.913 282,679.5C 282.833,678.667 283.667,677.833 284.5,677C 287.833,676.333 291.167,676.333 294.5,677C 337.247,684.25 380.247,689.25 423.5,692C 467.482,693.591 511.148,690.591 554.5,683C 624.004,670.919 683.67,640.419 733.5,591.5C 735.048,591.179 735.715,590.179 735.5,588.5C 746.962,576.258 756.462,562.592 764,547.5C 763.022,496.92 751.355,448.92 729,403.5C 708.353,360.171 683.686,319.504 655,281.5C 627.183,246.528 599.85,211.195 573,175.5C 550.531,150.687 525.364,129.187 497.5,111C 446.609,77.7091 393.609,47.7091 338.5,21C 324.167,15 309.833,15 295.5,21C 291.641,24.0316 287.974,27.1983 284.5,30.5C 282.821,30.2852 281.821,30.9519 281.5,32.5C 278.5,36.1667 275.167,39.5 271.5,42.5C 269.952,42.8212 269.285,43.8212 269.5,45.5C 253.615,61.8894 239.782,79.8894 228,99.5C 218.67,118.51 223.503,132.676 242.5,142C 247.655,146.948 247.822,152.115 243,157.5C 238.936,169.254 240.936,179.92 249,189.5C 264.492,204.326 282.992,212.826 304.5,215C 328.731,216.527 351.731,211.86 373.5,201C 388.997,194.092 403.33,185.426 416.5,175C 421.891,173.347 426.058,174.847 429,179.5C 429.956,193.614 432.956,207.281 438,220.5C 446.848,241.197 456.515,261.53 467,281.5C 499.516,338.655 535.183,393.655 574,446.5C 576.337,457.328 572.171,461.661 561.5,459.5C 545.31,437.823 523.977,423.99 497.5,418C 486,416.5 474.5,415 463,413.5C 440.165,414.584 421.499,423.917 407,441.5C 394.383,457.721 384.049,475.387 376,494.5C 370.667,499.833 365.333,499.833 360,494.5C 358.232,486.465 354.066,479.965 347.5,475C 302.674,445.128 253.341,433.128 199.5,439C 165.454,443.345 134.454,455.345 106.5,475C 103.167,478.333 99.8333,481.667 96.5,485C 86.2316,489.915 80.3983,486.748 79,475.5C 70.7646,468.13 61.2646,462.963 50.5,460C 39.8151,457.495 29.1485,454.995 18.5,452.5C 18.5,451.167 17.8333,450.5 16.5,450.5C 15.8826,450.389 15.3826,450.056 15,449.5C 12.499,440.81 15.6657,436.143 24.5,435.5C 46.6879,437.841 67.3546,444.674 86.5,456C 88.6667,458.167 90.8333,460.333 93,462.5C 122.957,438.616 157.124,424.782 195.5,421C 248.977,415.287 299.311,425.287 346.5,451C 353.912,455.741 360.745,461.241 367,467.5C 378.083,445.746 392.916,426.913 411.5,411C 425.372,401.043 440.872,395.876 458,395.5C 479.888,396.671 501.388,399.838 522.5,405C 487.496,355.521 456.662,303.354 430,248.5C 423.461,232.713 417.628,216.713 412.5,200.5C 373.733,227.359 331.066,237.192 284.5,230C 268.672,225.919 254.339,218.919 241.5,209C 225.588,194.262 219.921,176.262 224.5,155C 202.649,135.05 199.149,112.216 214,86.5C 231.001,58.6602 251.834,33.9935 276.5,12.5C 277.833,12.5 278.5,11.8333 278.5,10.5C 284.12,5.53487 290.453,1.8682 297.5,-0.5 Z"/></g>
<g><path style="opacity:0.071" fill="#000000" d="M 278.5,10.5 C 278.5,11.8333 277.833,12.5 276.5,12.5C 276.833,11.5 277.5,10.8333 278.5,10.5 Z"/></g>
<g><path style="opacity:0.097" fill="#050f0d" d="M 284.5,30.5 C 284.027,31.9063 283.027,32.573 281.5,32.5C 281.821,30.9519 282.821,30.2852 284.5,30.5 Z"/></g>
<g><path style="opacity:0.098" fill="#050e0d" d="M 271.5,42.5 C 271.573,44.0269 270.906,45.0269 269.5,45.5C 269.285,43.8212 269.952,42.8212 271.5,42.5 Z"/></g>
<g><path style="opacity:0.097" fill="#06100e" d="M 564.5,140.5 C 566.027,140.427 567.027,141.094 567.5,142.5C 565.821,142.715 564.821,142.048 564.5,140.5 Z"/></g>
<g><path style="opacity:0.098" fill="#050f0d" d="M 576.5,151.5 C 577.906,151.973 578.573,152.973 578.5,154.5C 576.952,154.179 576.285,153.179 576.5,151.5 Z"/></g>
<g><path style="opacity:0.392" fill="#0b1c1a" d="M 16.5,450.5 C 17.8333,450.5 18.5,451.167 18.5,452.5C 17.5,452.167 16.8333,451.5 16.5,450.5 Z"/></g>
<g><path style="opacity:1" fill="#04d7c3" d="M 612.5,546.5 C 612.5,547.833 613.167,548.5 614.5,548.5C 615.117,548.611 615.617,548.944 616,549.5C 616.658,553.572 616.325,557.572 615,561.5C 608.48,575.896 599.98,588.896 589.5,600.5C 587.952,600.821 587.285,601.821 587.5,603.5C 562.4,627.37 532.4,639.037 497.5,638.5C 463.573,638.415 431.24,631.248 400.5,617C 393.984,608.555 395.817,603.055 406,600.5C 418.076,604.781 430.243,608.947 442.5,613C 470.551,620.028 498.884,621.361 527.5,617C 563.314,606.52 587.481,583.687 600,548.5C 603.764,545.425 607.931,544.758 612.5,546.5 Z"/></g>
<g><path style="opacity:0.404" fill="#091b18" d="M 612.5,546.5 C 613.5,546.833 614.167,547.5 614.5,548.5C 613.167,548.5 612.5,547.833 612.5,546.5 Z"/></g>
<g><path style="opacity:0.097" fill="#06100e" d="M 735.5,588.5 C 735.715,590.179 735.048,591.179 733.5,591.5C 733.427,589.973 734.094,588.973 735.5,588.5 Z"/></g>
<g><path style="opacity:0.095" fill="#050f0d" d="M 589.5,600.5 C 589.573,602.027 588.906,603.027 587.5,603.5C 587.285,601.821 587.952,600.821 589.5,600.5 Z"/></g>
<g><path style="opacity:0.098" fill="#050e0d" d="M 746.5,602.5 C 746.573,604.027 745.906,605.027 744.5,605.5C 744.285,603.821 744.952,602.821 746.5,602.5 Z"/></g>
<g><path style="opacity:0.1" fill="#050e0d" d="M 735.5,614.5 C 735.027,615.906 734.027,616.573 732.5,616.5C 732.821,614.952 733.821,614.285 735.5,614.5 Z"/></g>
<g><path style="opacity:0.165" fill="#000605" d="M 299.5,695.5 C 298.391,695.557 297.391,695.89 296.5,696.5C 297.053,694.448 298.053,694.115 299.5,695.5 Z"/></g>
</svg>
